<svg id="Layer_1" data-name="Layer 1" xmlns="http://www.w3.org/2000/svg" viewBox="0 0 600 400"><defs><style>.cls-1{fill:#fff;}.cls-2{fill:#623fd6;}.cls-3{fill:none;stroke:#000;}.cls-3,.cls-4{stroke-miterlimit:10;stroke-width:10px;}.cls-4{fill:#2ee0ff;stroke:#fff;}</style></defs><title>dsm-caldenar</title><rect class="cls-1" x="19" y="100" width="562" height="275"/><rect class="cls-2" x="19" y="22" width="562" height="60"/><path d="M569.63,3.91H30.37A30.4,30.4,0,0,0,0,34.28V363.07a30.4,30.4,0,0,0,30.37,30.37H569.63A30.4,30.4,0,0,0,600,363.07V34.28A30.4,30.4,0,0,0,569.63,3.91ZM30.37,22.76H569.63a11.54,11.54,0,0,1,11.52,11.52V81.4H18.85V34.28A11.54,11.54,0,0,1,30.37,22.76ZM569.63,374.59H30.37a11.54,11.54,0,0,1-11.52-11.52V100.25h562.3V363.07A11.54,11.54,0,0,1,569.63,374.59Z"/><line class="cls-3" x1="59.34" y1="149.46" x2="534.73" y2="149.46"/><line class="cls-3" x1="59.34" y1="207.4" x2="534.73" y2="207.4"/><line class="cls-3" x1="59.34" y1="265.34" x2="534.73" y2="265.34"/><line class="cls-3" x1="59.34" y1="323.28" x2="534.73" y2="323.28"/><line class="cls-4" x1="102.62" y1="37.42" x2="102.62" y2="66.74"/><line class="cls-4" x1="201.05" y1="37.42" x2="201.05" y2="66.74"/><line class="cls-4" x1="299.48" y1="37.42" x2="299.48" y2="66.74"/><line class="cls-4" x1="397.91" y1="37.42" x2="397.91" y2="66.74"/><line class="cls-4" x1="496.34" y1="37.42" x2="496.34" y2="66.74"/></svg>