<svg id="Layer_1" data-name="Layer 1" xmlns="http://www.w3.org/2000/svg" viewBox="0 0 586.5 414"><defs><style>.cls-1{fill:none;stroke:#787878;stroke-miterlimit:10;stroke-width:8px;}.cls-2,.cls-3{fill:#623fd6;}.cls-2,.cls-4{fill-opacity:0;}.cls-4{fill:#700000;}.cls-5{fill:#7f7f7f;}.cls-6{fill:#787878;}</style></defs><title>123Artboard 1</title><rect class="cls-1" x="102.2" y="150" width="381.8" height="139.39"/><path id="path3864" class="cls-2" d="M292.57,187.13V181h4v12.18h-4Z"/><path id="path4671" class="cls-2" d="M292.56,187.13V181h4v12.18h-4Z"/><path id="path4673" class="cls-2" d="M292.56,187.13V181h4v12.18h-4Z"/><path id="path4675" class="cls-2" d="M292.56,187.13V181h4v12.18h-4Z"/><path id="path4677" class="cls-3" d="M292.56,187.13V181h4v12.18h-4Z"/><path id="path916" class="cls-4" d="M132.55,218c0-36.89,0-37.41,1.57-37.41s1.58.52,1.58,37.41,0,37.4-1.58,37.4S132.55,254.84,132.55,218Z"/><path id="path952" class="cls-3" d="M132.31,217.8V180.39h3.94v74.82h-3.94Z"/><path id="path954" class="cls-3" d="M143.93,228.24v-27h3.74v4.43a34.65,34.65,0,0,0,.14,4.43,2.83,2.83,0,0,0,.68-.93,19.53,19.53,0,0,1,7.57-7c6.06-2.95,15-2.7,20.49.57,4.47,2.69,6.91,6.27,8.18,12,.39,1.81.41,2.48.49,21.12l.08,19.24h-4l-.06-19.44-.06-19.44-.52-1.89c-1-3.61-2.45-5.78-5.07-7.54a16.76,16.76,0,0,0-5.1-2.34,14.07,14.07,0,0,0-4.56-.43,16.52,16.52,0,0,0-8.45,1.79,10.66,10.66,0,0,0-3.65,2.7c-3.44,3.46-5.51,8.28-6,14-.1,1.2-.19,9-.19,17.39v15.21h-3.74Z"/><path id="path956" class="cls-3" d="M204.69,255a10.09,10.09,0,0,1-4-2.16,13.08,13.08,0,0,1-2.52-4.81c-.31-1.07-.35-3-.41-22l-.06-20.82h-9.44v-3.94h9.46V186.4l2-1.05,2-1v16.95h11.62v3.94H201.61v20.31c0,13.53.07,20.72.21,21.52.6,3.44,3,4.7,8.05,4.25,1.25-.11,2.72-.33,2.72-.33l.44,4-2.1.13A29.85,29.85,0,0,1,204.69,255Z"/><path id="path958" class="cls-3" d="M234.59,256c-7.15-1.28-11.93-4.95-15.25-11.73a35.28,35.28,0,0,1-1.66-4,40.82,40.82,0,0,1,.18-23.41,24.16,24.16,0,0,1,5.79-9.6,21.57,21.57,0,0,1,18.24-7c5.91.55,10.18,2.34,13.82,5.8q3.68,3.48,6,10.35a28.69,28.69,0,0,1,1.71,9.7l.1,3.5H219.86l.12,2.21c.48,8.71,4.34,15.91,10,18.73a22.55,22.55,0,0,0,11.93,1.94c9.33-.93,14.67-6.14,17.05-16.63l.12-.54h3.73v.54a32.73,32.73,0,0,1-1.3,5.66,27.8,27.8,0,0,1-3.4,6.63,21.83,21.83,0,0,1-13.88,7.93A36.46,36.46,0,0,1,234.59,256Zm25-31.46a27.58,27.58,0,0,0-2.31-9.8c-2.73-5.75-6.54-8.9-12.43-10.27a27.64,27.64,0,0,0-9.65.1,19.55,19.55,0,0,0-12.07,9.88,32.23,32.23,0,0,0-3.06,10.48l-.1.74h39.72Z"/><path id="path960" class="cls-3" d="M269.14,218.2v-37h3.94v74h-3.94Z"/><path id="path962" class="cls-3" d="M281,218.2v-37h3.74v74H281Z"/><path id="path964" class="cls-3" d="M292.57,228.24v-27h3.94v54h-3.94Z"/><path id="path966" class="cls-3" d="M304.19,220.4c0-24.21.07-35.17.21-36,.75-4,2.92-4.43,23.61-4.07,10.61.19,12.12.25,13.79.6,8.76,1.82,13.62,6.44,15.38,14.62a22.55,22.55,0,0,1,.44,5.6,19.17,19.17,0,0,1-1.14,7.81c-2,5.85-7.54,10.36-14.73,12.06-3.44.82-5.12.9-19.73.9H308.13v33.27h-3.94Zm35.05-2.7a17.76,17.76,0,0,0,10-4.89,14.29,14.29,0,0,0,4.12-7,30.06,30.06,0,0,0-.09-10.14,13.92,13.92,0,0,0-9.08-9.9c-3.67-1.34-7-1.58-22.85-1.66-9.72-.05-10.19,0-11.22.34a2.82,2.82,0,0,0-1.52,1.06l-.45.67V218h14.71c12.18,0,15-.05,16.4-.3Z"/><path id="path968" class="cls-3" d="M379.7,256.08a22.33,22.33,0,0,1-9.2-3.84,29.09,29.09,0,0,1-9.09-13.2A35.17,35.17,0,0,1,362.87,214c4.39-9.09,11.61-13.74,21.35-13.74a22.75,22.75,0,0,1,14,4.39c4.86,3.66,8.49,10.17,9.66,17.33,1.3,8,.26,15.49-3,21.81-4.39,8.45-11.46,12.69-21.06,12.62A31.8,31.8,0,0,1,379.7,256.08Zm7.48-3.72a19.39,19.39,0,0,0,6.19-1.87c5.78-2.91,10-9.66,11.05-17.86a46.92,46.92,0,0,0-.39-11,26.65,26.65,0,0,0-2.44-6.82c-2.87-5.64-6.69-8.76-12.51-10.22a17.17,17.17,0,0,0-4.95-.41,15.78,15.78,0,0,0-5.22.53A17.61,17.61,0,0,0,370,210a28.8,28.8,0,0,0-5.91,12.61,43,43,0,0,0,0,11.39c1.48,7.31,5.68,13.71,10.72,16.31a20.18,20.18,0,0,0,12.35,2Z"/><path id="path970" class="cls-5" d="M414.25,228.24v-27H418v4.53a35.08,35.08,0,0,0,.15,4.53,5.41,5.41,0,0,0,.83-1.22,19.4,19.4,0,0,1,2.34-2.95,16.71,16.71,0,0,1,9.13-5.18,39.23,39.23,0,0,1,7.29-.89c.91,0,.93,0,.93.59v.59h8.86l.05-7.49.05-7.49,1.82-1,1.82-1v16.9h11.82v3.94H451.26V225c0,11.63.08,20.45.2,21.31.26,2,1,3.5,2.09,4.09a10.1,10.1,0,0,0,5.84.85c1.21-.11,2.49-.26,2.84-.33l.64-.13V255l-2.22.13c-4.91.28-6.43.09-8.65-1.09a7.1,7.1,0,0,1-3.23-3.58c-1.29-2.71-1.25-2-1.25-24.68V205.2h-9.65v-.59c0-.58,0-.59-1.06-.59a24.5,24.5,0,0,0-7.85,1.51c-5.82,2.18-10,8.72-10.76,16.82-.13,1.37-.21,8.22-.21,17.55v15.31h-3.74Z"/><path id="path972" class="cls-3" d="M414.25,228.24v-27H418v4.43a29.69,29.69,0,0,0,.17,4.43,4.73,4.73,0,0,0,.93-1.23,22.71,22.71,0,0,1,5.32-5.45,19.52,19.52,0,0,1,6.37-2.58c1.85-.4,6.82-.78,6.82-.78s1.06,0,1.06.59v.59h8.86l.05-7.48.05-7.49,1.82-1,1.82-1v16.92h11.82v3.94H451.26v19.44c0,18.61.08,21.79.6,23.58a4.58,4.58,0,0,0,2.94,2.74,20.37,20.37,0,0,0,6.59.12c.65-.11,1.33-.2,1.33-.2l.15,4.07-2.22.13c-4.93.29-6.31.12-8.46-1a7,7,0,0,1-3.42-3.67c-1.29-2.71-1.25-2-1.25-24.68V205.2h-9.65V204l-2,.13a21.17,21.17,0,0,0-9.29,2.62c-3.88,2.36-6.94,7.45-8.15,13.52-.27,1.38-.33,4-.4,18.29L418,255.21h-3.71Z"/><path class="cls-6" d="M571.5,309V78h0V66.56A20.57,20.57,0,0,0,550.94,46h-10.3l-.37,0-.74,0h-160V12a12,12,0,0,0-12-12H222.86A11.37,11.37,0,0,0,211.5,11.36V46H35A20.46,20.46,0,0,0,14.5,66.45v242.6A15.48,15.48,0,0,0,0,324.48V400H20.5v14h29V400h21V324.48A15.49,15.49,0,0,0,55.5,309V133.61L104.11,85H239v62.5h14V85h80v61.5h14V85H483.89l46.61,46.61V309.05A15.48,15.48,0,0,0,516,324.48V400h20.5v14h29V400h21V324.48A15.49,15.49,0,0,0,571.5,309ZM55.5,112.39V85H82.89Zm475-2L505.11,85H530.5Z"/></svg>