<?xml version="1.0" encoding="utf-8"?>
<!-- Generator: Adobe Illustrator 22.0.1, SVG Export Plug-In . SVG Version: 6.00 Build 0)  -->
<svg version="1.1"
	 id="svg12" inkscape:version="0.92.2 5c3e80d, 2017-08-06" sodipodi:docname="iport_i_sqr.svg" xmlns:cc="http://creativecommons.org/ns#" xmlns:dc="http://purl.org/dc/elements/1.1/" xmlns:inkscape="http://www.inkscape.org/namespaces/inkscape" xmlns:rdf="http://www.w3.org/1999/02/22-rdf-syntax-ns#" xmlns:sodipodi="http://sodipodi.sourceforge.net/DTD/sodipodi-0.dtd" xmlns:svg="http://www.w3.org/2000/svg"
	 xmlns="http://www.w3.org/2000/svg" xmlns:xlink="http://www.w3.org/1999/xlink" x="0px" y="0px" viewBox="0 0 600 600"
	 style="enable-background:new 0 0 600 600;" xml:space="preserve">
<style type="text/css">
	.st0{fill:#623FD6;}
	.st1{fill:#7F7F7F;stroke:#7F7F7F;stroke-width:12;stroke-miterlimit:10;}
</style>
<sodipodi:namedview  bordercolor="#666666" borderopacity="1" gridtolerance="10" guidetolerance="10" id="namedview14" inkscape:current-layer="svg12" inkscape:cx="173.07388" inkscape:cy="394.13147" inkscape:measure-end="0,0" inkscape:measure-start="0,0" inkscape:pageopacity="0" inkscape:pageshadow="2" inkscape:window-height="1115" inkscape:window-maximized="0" inkscape:window-width="1852" inkscape:window-x="1440" inkscape:window-y="-22" inkscape:zoom="1.0759878" objecttolerance="10" pagecolor="#ffffff" showgrid="false">
	</sodipodi:namedview>
<g id="g10" transform="matrix(0.1,0,0,-0.1,-43.999194,637.57364)">
	
		<path id="path4" inkscape:connector-curvature="0" inkscape:export-xdpi="7.6793065" inkscape:export-ydpi="7.6793065" sodipodi:nodetypes="ccscccsccccccccccccccccccccccccccccc" class="st0" d="
		M1434,6365c-433-78-802.5-396-940.5-815c-59-178-53.5-89-53.5-2170c0-2083-15.9-1973.1,43.1-2149.1C548.1,1036.9,645,884,789,739
		c149-149,302-251,487-309c190-60,70-50,2159-50c2083,0,1981-13.5,2167,45.5c190,60,340,164.5,493,318.5c162,164,254,313,320,554
		l20,117.9V3375v1941.7l-16,135.8c-114,471-505,830.5-973,912.5c-78,13-323,15-2015,14C1912,6378,1490,6375,1434,6365z M5442,6033
		c341-97,567-323,651-650l22-88V3380V1465l-22-88c-84-328-309-553-651-650l-115.3-22L3515,702c-1189-2-1886,1-1951,7
		c-378,38-671,285-773,650l-26,127.4V3380v1911.1l26,109.9c101,362,413,624,779,652c25,2,889,3,1920,3l1843.6-1L5442,6033z"/>
</g>
<path id="path966" inkscape:connector-curvature="0" class="st1" d="M255.8,310.5c0-96.9,0.3-140.7,0.9-144
	c3-16.2,11.7-17.7,94.5-16.3c42.4,0.7,48.5,1,55.2,2.4c35.1,7.3,54.5,25.8,61.5,58.5c1.5,6.8,1.8,10.7,1.8,22.4
	c0,15.1-0.8,20.3-4.6,31.3c-8.1,23.4-30.1,41.4-58.9,48.3c-13.8,3.3-20.5,3.6-79,3.6h-55.6v66.6v66.6h-7.9h-7.9V310.5z M396,299.7
	c16.8-3,28.4-8.7,40-19.6c8.2-7.8,13.2-16.2,16.5-28.1c2.2-8,2-31.9-0.3-40.6c-5.3-19.4-17.6-32.8-36.4-39.6
	c-14.7-5.4-27.9-6.3-91.4-6.7c-38.9-0.2-40.8-0.1-44.9,1.4c-3.1,1.1-4.8,2.4-6.1,4.3l-1.8,2.7v63.7v63.7l58.9,0
	C379.2,300.9,390.5,300.7,396,299.7L396,299.7z"/>
<path id="path952" inkscape:connector-curvature="0" class="st1" d="M171.3,299.5v-150h7.9h7.9v150v150h-7.9h-7.9V299.5z"/>
</svg>
