<svg id="Layer_1" data-name="Layer 1" xmlns="http://www.w3.org/2000/svg" viewBox="0 0 564 361.5"><defs><style>.cls-1{fill:#7f7f7f;}.cls-2{stroke:#000;}.cls-2,.cls-3{stroke-miterlimit:10;stroke-width:5px;}.cls-3{fill:none;stroke:#623fd6;}</style></defs><title>test</title><path d="M713.5,335.5" transform="translate(-10 -8.5)"/><polyline class="cls-1" points="584.5 338 584.5 338 584.5 338"/><path d="M248,67.5" transform="translate(-10 -8.5)"/><path class="cls-2" d="M362.29,11.55a6,6,0,0,1,6.21,6v37H542.94A15.56,15.56,0,0,1,558.5,70.06V300.37l2.8.09A10.52,10.52,0,0,1,571.5,311V353.5h-12v14h-26v-14h-12V308.89a8.35,8.35,0,0,1,7.84-8.33l5.16-.31V121L492.28,78.5H320.5v66h0v-66h-56v66h0v-66H93L49.5,121.87V299.61l4.85.14a8.42,8.42,0,0,1,8.15,8.41V351.5h-12v14h-26v-14h-12V307.89a8.35,8.35,0,0,1,7.84-8.33l5.16-.31V70A15.45,15.45,0,0,1,41,54.5H220.5V17.36A6.36,6.36,0,0,1,226.86,11ZM49.5,122,93,78.5H49.5Zm485-1V78.5H492Z" transform="translate(-10 -8.5)"/><path class="cls-3" d="M196.5,144.5h190c2.76,1,5,3.24,5,6v70a5,5,0,0,1-5,5h-190a5,5,0,0,1-5-5v-70C191.5,147.74,193.74,145.5,196.5,144.5Z" transform="translate(-10 -8.5)"/><path class="cls-3" d="M362.5,11.5" transform="translate(-10 -8.5)"/></svg>