<svg id="Layer_1" data-name="Layer 1" xmlns="http://www.w3.org/2000/svg" viewBox="0 0 600 400"><defs><style>.cls-1{fill:#fff;}.cls-2{fill:#623fd6;}</style></defs><title>prtg-truck</title><rect class="cls-1" x="493.47" y="153.18" width="84.42" height="55.28"/><rect class="cls-2" x="16.73" y="92.55" width="379.87" height="143.08" rx="0.5" ry="0.5"/><path class="cls-2" d="M390.1,99.05V229.14H23.23V99.05H390.1m6-13H17.23a7,7,0,0,0-7,7V235.14a7,7,0,0,0,7,7H396.1a7,7,0,0,0,7-7V93.05a7,7,0,0,0-7-7Z"/><path d="M600,240.65h-4.46l-.11-8.18s-6.95-52.8-18.17-89.93H585a29.68,29.68,0,0,0-10.41-20.81l-5.11-.17c-4.19-8.85-8.77-14.54-13.65-14.7H522.7s-36.42-27.5-83.24-26.75V102.4h-11.9V248.79l-34.19.74-8.54-7.39H0v43.1H15.26V261.46H32.43v35.68H43.24a29.74,29.74,0,0,0,56.73,0h11.65a29.74,29.74,0,0,0,56.73,0h13.14l.24-22.3h15.42l-.25,10.84h10.66l-.12-10.84h6.07V260h10.4v25.71h10.41V258.49h14.86v38.65H258a29.74,29.74,0,0,0,56.73,0h56.37v4.46h16.35v-7.44h40.13v4.46h45.22a29.86,29.86,0,0,0,55.89,0H582s11.25-2.23,15-10.4l-.08-6h3Zm-64.6-37.91-1.12-8.92H496.75V158.15h66.89c5.21,9.66,10.41,44.59,10.41,44.59Z"/></svg>