<svg id="Layer_1" data-name="Layer 1" xmlns="http://www.w3.org/2000/svg" viewBox="0 0 600 400"><defs><style>.cls-1{fill:#623fd6;}</style></defs><title>truck-1c</title><rect class="cls-1" x="19.67" y="93.71" width="377.91" height="142.3" rx="0.5" ry="0.5"/><path class="cls-1" d="M391.08,100.21v129.3H26.17V100.21H391.08m6-13H20.17a7,7,0,0,0-7,7v141.3a7,7,0,0,0,7,7H397.08a7,7,0,0,0,7-7V94.21a7,7,0,0,0-7-7Z"/><path d="M92,286.32l25.82.57V278h42.89V261.74H182.9v13.31h16.27l-.25,14.8h-4.19v4.43H214v-4.43h-4.44l-.11-14.8h6V260.26h10.35v29.59h10.36V258.78h14.79v38.46h8.75a29.59,29.59,0,0,0,56.45,0H338.2v4.44h16.27v-3h17.75v3h16.27v-7.4h39.94v4.44h45a29.71,29.71,0,0,0,55.6,0h53.1s11.19-2.22,14.92-10.35l-.08-5.92h3V241h-4.44l-.11-8.14s-6.91-52.53-18.08-89.48h7.73a29.54,29.54,0,0,0-10.35-20.71l-5.09-.17c-4.17-8.81-8.72-14.47-13.58-14.62h-33s-36.24-27.36-82.83-26.63v22.19H428.43V249.14l-34,.73-8.51-7.36H94M0,243.73V274M497.27,159h66.55c5.18,9.61,10.36,44.37,10.36,44.37H535.72l-1.12-8.88H497.27Z"/><path d="M184.17,242.51H-1v42.9H21.19V281h-7.4V261.74H37.27v35.5H46a29.58,29.58,0,0,0,56.44,0h11.59a29.59,29.59,0,0,0,56.45,0h13.07Z"/></svg>