<svg id="Layer_1" data-name="Layer 1" xmlns="http://www.w3.org/2000/svg" viewBox="0 0 601.46 385.39"><defs><style>.cls-1{fill:#7f7f7f;}.cls-2{stroke:#000;}.cls-2,.cls-3,.cls-4{stroke-miterlimit:10;}.cls-2,.cls-4{stroke-width:5px;}.cls-3{fill:#623fd6;stroke-width:8px;}.cls-3,.cls-4{stroke:#623fd6;}.cls-4{fill:none;}</style></defs><title>rtg-solid</title><path d="M742.5,350.89"/><polyline class="cls-1" points="623.5 361.55 623.5 361.55 623.5 361.55"/><path d="M253.78,62.79"/><path class="cls-2" d="M375.73,3.08a6.45,6.45,0,0,1,6.63,6.37V48.91H568.48a16.61,16.61,0,0,1,16.61,16.61V311.26l3,.1A11.22,11.22,0,0,1,599,322.58v45.9H586.15v14.41H558.41V368.48h-12.8V320.35a8.89,8.89,0,0,1,8.36-8.88l5.51-.34V118.82l-44-44.3H330.07V145H329V74.52H272.45V145h1.07V74.52H88.43L42,120.8V310.45l5.17.15a9,9,0,0,1,8.7,9v48.91H43.05v14.41H15.3V368.48H2.5V319.29a8.9,8.9,0,0,1,8.36-8.89l5.51-.34V65.4A16.49,16.49,0,0,1,32.86,48.91H224.44V9.29a6.8,6.8,0,0,1,6.79-6.79ZM42,119.83,87.29,74.52H42Zm517.5,0V74.52H514.17Z"/><path class="cls-3" d="M216.11,145h170.3c2.48.89,4.48,2.9,4.48,5.37v62.75a4.48,4.48,0,0,1-4.48,4.48H216.11a4.49,4.49,0,0,1-4.48-4.48V150.32C211.63,147.85,213.64,145.84,216.11,145Z"/><path class="cls-4" d="M376,3"/></svg>