<svg id="Layer_1" data-name="Layer 1" xmlns="http://www.w3.org/2000/svg" viewBox="0 0 316 85"><defs><style>.cls-1{fill:#623fd6;}</style></defs><title>boat</title><path class="cls-1" d="M14,85H265a120.37,120.37,0,0,0,14.05-2.58c.12,2.06.5,2.58.95,2.58s.9-.77,1-3.1c1.24-.36,2-.68,2-.9,0-.55-.83-.87-2-1.07-.1-2.25-.5-2.93-1-2.93s-.85.58-1,2.71c-3.15-.23-7-.12-7-.71,0,0,21-12,22-9,.82,2.46,2.31,11,2.82,14a1.26,1.26,0,0,0,1.24,1H304V70l7.78-.65C315,69,316,65.16,316,62.77V50.35a.35.35,0,0,0-.35-.35H313V41h-3v9h-3V32H285V50h-3V30h-3L272,4h-2V3h-3V4h-2l-1,26h-2V15h-2V0h-2V15h-3V11h-2v4h-5V51l-8,.08V28.25H217V51.08h-3V30.25H193V51.08h-8V35.25H163V51.08h-3V29.25H138V51.08h-8V29.25H109V51.08h-3V32.25H83V51.08S81,51,79,51s-7-8-10-8H66l-2-7V10H61v4H57v1h4v9H59V43H0S16.24,60.78,19,64c6,7-3,8-9,11C3,79,12,85,14,85ZM275,34h4V48h-4ZM27,51H59l4,4H31Z"/></svg>