<?xml version="1.0" standalone="no"?>
<!DOCTYPE svg PUBLIC "-//W3C//DTD SVG 20010904//EN"
 "http://www.w3.org/TR/2001/REC-SVG-20010904/DTD/svg10.dtd">
<svg version="1.0" xmlns="http://www.w3.org/2000/svg"
 width="700.000000pt" height="700.000000pt" viewBox="0 0 700.000000 700.000000"
 preserveAspectRatio="xMidYMid meet">
<metadata>
Created by potrace 1.11, written by Peter Selinger 2001-2013
</metadata>
<g transform="translate(0.000000,700.000000) scale(0.100000,-0.100000)"
fill="#000000" stroke="none">
<path d="M1200 6990 c-176 -17 -388 -98 -567 -216 -185 -123 -349 -296 -453
-479 -85 -149 -144 -311 -162 -447 -10 -73 -13 -597 -13 -2393 0 -2224 1
-2302 19 -2370 38 -142 121 -324 199 -440 23 -33 75 -98 117 -145 67 -75 93
-102 174 -174 98 -88 248 -180 372 -229 160 -64 210 -75 384 -84 119 -7 4256
-10 4445 -3 129 4 208 16 300 47 227 74 366 164 571 368 134 132 222 250 283
377 44 92 101 254 108 308 2 19 8 49 12 65 8 37 6 4578 -3 4659 -10 89 -13
106 -45 204 -69 210 -203 419 -369 575 -30 29 -60 57 -66 62 -88 84 -309 208
-461 259 -193 65 20 60 -2490 61 -1254 1 -2314 -2 -2355 -5z m4585 -378 c180
-44 380 -143 482 -238 15 -14 35 -31 43 -38 27 -20 116 -130 152 -186 40 -63
99 -194 118 -260 6 -25 17 -56 24 -70 15 -35 22 -4524 6 -4590 -86 -358 -267
-593 -571 -742 -75 -36 -190 -77 -239 -84 -19 -3 -49 -9 -67 -14 -17 -4 -1027
-7 -2245 -6 -2205 2 -2213 3 -2298 23 -219 54 -379 143 -525 290 -129 132
-237 341 -272 525 -4 23 -8 1060 -8 2303 l0 2260 28 90 c31 100 86 214 144
302 50 77 192 219 272 273 131 88 305 153 441 166 36 4 66 7 67 8 1 0 991 1
2200 0 1695 0 2209 -3 2248 -12z"/>
<path d="M3241 5020 l-1 -330 268 0 267 0 -2 318 c-1 174 -2 323 -2 330 -1 9
-61 12 -265 12 l-264 0 -1 -330z"/>
<path d="M3260 2828 c0 -819 3 -1238 10 -1238 6 -1 93 -1 195 -1 102 0 214 0
249 1 l64 0 0 1235 c0 927 -3 1235 -11 1236 -7 1 -123 2 -259 3 l-248 1 0
-1237z"/>
</g>
</svg>
