<?xml version="1.0" standalone="no"?>
<!DOCTYPE svg PUBLIC "-//W3C//DTD SVG 20010904//EN"
 "http://www.w3.org/TR/2001/REC-SVG-20010904/DTD/svg10.dtd">
<svg version="1.0" xmlns="http://www.w3.org/2000/svg"
 width="700.000000pt" height="700.000000pt" viewBox="0 0 700.000000 700.000000"
 preserveAspectRatio="xMidYMid meet">
<metadata>
Created by potrace 1.11, written by Peter Selinger 2001-2013
</metadata>
<g transform="translate(0.000000,700.000000) scale(0.100000,-0.100000)"
fill="#000000" stroke="none">
<path d="M1200 6990 c-176 -17 -388 -98 -567 -216 -185 -123 -349 -296 -453
-479 -85 -149 -144 -311 -162 -447 -10 -73 -13 -597 -13 -2393 0 -2224 1
-2302 19 -2370 38 -142 121 -324 199 -440 23 -33 75 -98 117 -145 67 -75 93
-102 174 -174 98 -88 248 -180 372 -229 160 -64 210 -75 384 -84 119 -7 4258
-10 4445 -3 129 4 209 16 300 47 227 74 366 164 571 368 134 132 222 250 283
377 44 92 101 254 108 308 2 19 8 49 12 65 8 37 6 4578 -3 4659 -10 89 -13
106 -45 204 -69 210 -203 419 -369 575 -30 29 -60 57 -66 62 -88 84 -309 208
-461 259 -193 65 20 60 -2490 61 -1254 1 -2314 -2 -2355 -5z m4585 -378 c180
-44 380 -143 482 -238 15 -14 35 -31 43 -38 27 -20 116 -130 152 -186 40 -63
99 -194 118 -260 6 -25 17 -56 24 -70 15 -35 22 -4524 6 -4590 -86 -358 -267
-593 -571 -742 -75 -36 -190 -77 -239 -84 -19 -3 -49 -9 -67 -14 -17 -4 -1027
-7 -2245 -6 -2205 2 -2213 3 -2298 23 -219 54 -379 143 -525 290 -129 132
-237 341 -272 525 -4 23 -8 1060 -8 2303 l0 2260 28 90 c31 100 86 214 144
302 50 77 192 219 272 273 131 88 305 153 441 166 36 4 66 7 67 8 1 0 991 1
2200 0 1695 0 2209 -3 2248 -12z"/>
<path d="M1935 5321 c-3 -2 -5 -821 -5 -1820 l0 -1816 160 0 160 0 1 35 c0 46
0 3536 0 3575 l-1 31 -155 0 c-86 0 -158 -2 -160 -5z"/>
<path d="M3528 5325 c-1 -2 -60 -6 -129 -9 -322 -15 -425 -62 -464 -211 -14
-52 -15 -185 -18 -1822 l-3 -1601 163 -1 163 0 0 682 c-1 375 -1 725 0 777 l0
95 533 1 c601 0 802 7 914 29 464 94 775 381 848 785 21 115 12 454 -15 530
-5 14 -16 52 -25 85 -33 120 -109 254 -200 350 -116 124 -324 229 -534 270
-116 22 -159 24 -701 30 -278 4 -510 8 -517 10 -6 2 -13 2 -15 0z m740 -329
c134 -4 258 -8 275 -11 18 -2 55 -6 84 -9 219 -21 420 -139 512 -299 65 -115
82 -189 86 -375 4 -241 -46 -378 -188 -515 -162 -157 -320 -216 -597 -222
-183 -5 -1191 -7 -1195 -3 -6 6 -7 102 -6 743 l1 660 22 14 c12 7 45 16 73 20
61 7 599 6 933 -3z"/>
</g>
</svg>
