<svg id="svg140" xmlns="http://www.w3.org/2000/svg" viewBox="0 0 246.96 49.51"><defs><style>.cls-1,.cls-2{fill:#623fd6;}.cls-1,.cls-3{fill-opacity:0;}.cls-3{fill:#700000;}.cls-4{fill:#7f7f7f;}</style></defs><title>intelliport-inc</title><path id="path3864" class="cls-1" d="M79.43,9.61v-3h2v6h-2Z"/><path id="path4671" class="cls-1" d="M79.42,9.61v-3h2v6h-2Z"/><path id="path4673" class="cls-1" d="M79.42,9.61v-3h2v6h-2Z"/><path id="path4675" class="cls-1" d="M79.42,9.61v-3h2v6h-2Z"/><path id="path4677" class="cls-2" d="M79.42,9.61v-3h2v6h-2Z"/><path id="path916" class="cls-3" d="M.31,24.85c0-18.24,0-18.5.78-18.5s.78.26.78,18.5,0,18.49-.78,18.49S.31,43.08.31,24.85Z"/><path id="path952" class="cls-4" d="M.19,24.77V6.27h2v37h-2Z"/><path id="path954" class="cls-4" d="M5.93,29.93V16.59H7.78v2.19A16,16,0,0,0,7.86,21a1.5,1.5,0,0,0,.33-.46,9.75,9.75,0,0,1,3.74-3.44,11.65,11.65,0,0,1,10.13.28,8.36,8.36,0,0,1,4.05,6c.19.9.2,1.22.24,10.44v9.52H24.44V24.08l-.26-.93a5.92,5.92,0,0,0-2.52-3.77,8.18,8.18,0,0,0-2.53-1.16A7.09,7.09,0,0,0,16.88,18a8.22,8.22,0,0,0-4.22.88,5.27,5.27,0,0,0-1.8,1.34,11,11,0,0,0-3,6.92c-.05.59-.09,4.46-.1,8.6v7.52H5.93Z"/><path id="path956" class="cls-4" d="M36,43.16a5,5,0,0,1-2-1.07,6.42,6.42,0,0,1-1.25-2.4c-.15-.53-.17-1.47-.2-10.88V18.52H27.84v-2h4.67V9.24l1-.51,1-.52v8.38h5.74v2H34.46v10c0,6.67,0,10.21.1,10.64.3,1.7,1.47,2.32,4,2.1.62,0,1.22-.13,1.34-.16s.22,0,.22,1v1l-1,.06A14.34,14.34,0,0,1,36,43.16Z"/><path id="path958" class="cls-4" d="M50.76,43.69a9.75,9.75,0,0,1-7.54-5.8,20.47,20.47,0,0,1-.82-2,20.17,20.17,0,0,1,.09-11.57,12,12,0,0,1,2.86-4.75,10.7,10.7,0,0,1,9-3.47A10.72,10.72,0,0,1,61.19,19a12.3,12.3,0,0,1,2.94,5.12A14,14,0,0,1,65,28.88v1.73H43.48l.06,1.1c.23,4.3,2.14,7.86,5,9.26a11.06,11.06,0,0,0,5.89,1c4.62-.46,7.26-3,8.43-8.22l.06-.27h1.85v.26a15.78,15.78,0,0,1-.64,2.8,13.41,13.41,0,0,1-1.69,3.28,10.73,10.73,0,0,1-6.9,3.92A18.21,18.21,0,0,1,50.76,43.69ZM63.11,28.1A13.29,13.29,0,0,0,62,23.26a8.44,8.44,0,0,0-6.15-5.08,13.65,13.65,0,0,0-4.77.05,9.72,9.72,0,0,0-6,4.88,16.23,16.23,0,0,0-1.51,5.19v.36H63.16Z"/><path id="path960" class="cls-4" d="M67.85,25V6.69h1.94V43.27H67.85Z"/><path id="path962" class="cls-4" d="M73.66,25V6.69h1.85V43.27H73.66Z"/><path id="path964" class="cls-4" d="M79.43,29.93V16.59h2V43.27h-2Z"/><path id="path966" class="cls-4" d="M85.17,26.05c0-12,0-17.39.11-17.79.37-2,1.44-2.18,11.67-2,5.25.09,6,.13,6.82.3,4.33.9,6.73,3.18,7.6,7.23a11.11,11.11,0,0,1,.22,2.76,9.26,9.26,0,0,1-.57,3.87,9.77,9.77,0,0,1-7.28,6c-1.7.41-2.53.44-9.75.44H87.12V43.27h-2Zm17.33-1.36a8.83,8.83,0,0,0,4.94-2.42,6.93,6.93,0,0,0,2-3.47,15,15,0,0,0,0-5A6.91,6.91,0,0,0,105,8.9c-1.82-.66-3.45-.78-11.3-.82-4.8,0-5,0-5.54.17a1.45,1.45,0,0,0-.76.53l-.22.33V24.87h7.28a73,73,0,0,0,8.1-.15Z"/><path id="path968" class="cls-4" d="M122.51,43.69A11,11,0,0,1,118,41.8a14.28,14.28,0,0,1-4.49-6.53,17.41,17.41,0,0,1,.71-12.4c2.18-4.5,5.75-6.79,10.56-6.79a11.27,11.27,0,0,1,7,2.17,13.58,13.58,0,0,1,4.77,8.56A17.12,17.12,0,0,1,135,37.6a10.88,10.88,0,0,1-10.41,6.24A14.59,14.59,0,0,1,122.51,43.69Zm3.69-1.84a9.4,9.4,0,0,0,3.07-.92c2.85-1.44,4.92-4.78,5.46-8.83a23.11,23.11,0,0,0-.19-5.45,13.51,13.51,0,0,0-1.21-3.38,8.93,8.93,0,0,0-6.18-5,8.77,8.77,0,0,0-2.45-.2,7.74,7.74,0,0,0-2.58.26,8.75,8.75,0,0,0-4.4,2.65,14.25,14.25,0,0,0-2.92,6.24,21.23,21.23,0,0,0,0,5.63c.73,3.61,2.81,6.78,5.3,8.06a10,10,0,0,0,6.1,1Z"/><path id="path970" class="cls-4" d="M151.66,16.59H156V9.19l.9-.48.9-.48v8.36h5.84v2h-5.84V28.4c0,5.75,0,10.11.1,10.53a2.58,2.58,0,0,0,1,2,5,5,0,0,0,2.88.42c.6-.06,1.23-.13,1.41-.17l.31-.06v2l-1.09.06c-2.43.14-3.18,0-4.28-.54a3.45,3.45,0,0,1-1.51-1.75c-.63-1.34-.62-1-.62-12.2V18.54h-2.38"/><path class="cls-4" d="M160.81,16.59h-2.92V8.22l-.9.49-.9.48v7.4H151.4v2h4.69v10.1c0,11.2,0,10.86.62,12.2a3.52,3.52,0,0,0,1.64,1.8c1.07.55,1.75.63,4.19.49l1.09-.06v-1a3.75,3.75,0,0,0-.07-1l-.66.1a10.19,10.19,0,0,1-3.26,0,2.3,2.3,0,0,1-1.45-1.36c-.26-.89-.3-2.46-.3-11.66V18.54h5.84v-2Z"/><path class="cls-4" d="M148.92,16.2l-1.16.19a11.62,11.62,0,0,0-1.42.43h-.13l-.36.16-.35.15-.37.19-.1.06-.37.31a4.26,4.26,0,0,0-.54.41h0l-.3.26c-.22.2-.44.41-.67.65l-.14.16a7.67,7.67,0,0,0-1,1.2,2.23,2.23,0,0,1-.46.6,16,16,0,0,1-.08-2.19V16.59h-1.85V43.27h1.85V35c0-5.16.05-7.23.11-8.25a6.28,6.28,0,0,1,.17-1.14l.09-.36a2.4,2.4,0,0,1,.15-.57,11.35,11.35,0,0,1,1.67-3.49l.07-.1a5.72,5.72,0,0,1,.45-.53c.16-.18.33-.35.5-.51l.19-.18a9.71,9.71,0,0,1,.83-.6A8.84,8.84,0,0,1,149.88,18V16.11Z"/><path id="path974" class="cls-4" d="M166.46,48.74c0-.74,0-.76.32-1,.66-.41,1.23-2,1.37-3.77l.06-.75h-1.07V38.2h2.45l-.05,3.49c0,3.85-.09,4.23-.68,5.49a5,5,0,0,1-1.77,2.07,2,2,0,0,1-.53.26c-.06,0-.1-.28-.1-.76Z"/><path id="path976" class="cls-4" d="M188.66,24.77V6.27h2v37h-2Z"/><path id="path978" class="cls-4" d="M194.49,29.93V16.59h1.85V21l.43-.67a10.06,10.06,0,0,1,3.56-3.24,11.49,11.49,0,0,1,2.92-.9,15,15,0,0,1,4.43.08,8.37,8.37,0,0,1,6.51,5.62c.59,1.77.6,1.89.6,12.09v9.28H213V33.85c0-10.4,0-10.15-.66-11.81a5.64,5.64,0,0,0-3.17-3.22,8.2,8.2,0,0,0-3.7-.86,11.62,11.62,0,0,0-3.1.45,9.43,9.43,0,0,0-2.55,1.39,11,11,0,0,0-3.21,5.95c-.15.64-.17,1.73-.2,9.12v8.4h-1.84Z"/><path id="path980" class="cls-4" d="M227.24,43.69a10.44,10.44,0,0,1-5.91-3.07,13.86,13.86,0,0,1-3.48-6.76A22,22,0,0,1,217.7,28c.55-4.21,2.38-7.8,5-9.73a12.28,12.28,0,0,1,7.37-2.21,9.4,9.4,0,0,1,3.45.48,9,9,0,0,1,6.13,6,21.61,21.61,0,0,1,.64,2.73,4.17,4.17,0,0,1-1,0h-.94l-.23-.95c-.83-3.59-2.77-5.55-6.16-6.26a11.68,11.68,0,0,0-6.48.69A9.55,9.55,0,0,0,221.81,22a17,17,0,0,0-2.05,5.15,16,16,0,0,0,.38,7.91,12.25,12.25,0,0,0,3.2,4.93,9.18,9.18,0,0,0,4,1.85,14.57,14.57,0,0,0,2.09.12,8.51,8.51,0,0,0,2.36-.21,8.21,8.21,0,0,0,6.6-7.35l.12-.75h1c1,0,1,0,.92.22s-.12.59-.21,1c-1.12,5.78-5,9-10.9,9a19,19,0,0,1-2-.14Z"/><path id="path982" class="cls-4" d="M244.53,40.78V38.3H247v5h-2.43Z"/></svg>