<svg id="svg140" xmlns="http://www.w3.org/2000/svg" viewBox="0 0 246.77 43.29"><defs><style>.cls-1,.cls-2{fill:#623fd6;}.cls-1,.cls-3{fill-opacity:0;}.cls-3{fill:#700000;}.cls-4{fill:#7f7f7f;}</style></defs><title>intelliport-inc2</title><path id="path3864" class="cls-1" d="M81.77,9.92v-3h2v6h-2Z" transform="translate(-2.53 -6.51)"/><path id="path4671" class="cls-1" d="M81.76,9.92v-3h2v6h-2Z" transform="translate(-2.53 -6.51)"/><path id="path4673" class="cls-1" d="M81.76,9.92v-3h2v6h-2Z" transform="translate(-2.53 -6.51)"/><path id="path4675" class="cls-1" d="M81.76,9.92v-3h2v6h-2Z" transform="translate(-2.53 -6.51)"/><path id="path4677" class="cls-2" d="M81.76,9.92v-3h2v6h-2Z" transform="translate(-2.53 -6.51)"/><path id="path916" class="cls-3" d="M2.65,25.16c0-18.24,0-18.5.78-18.5s.78.26.78,18.5,0,18.49-.78,18.49S2.65,43.39,2.65,25.16Z" transform="translate(-2.53 -6.51)"/><path id="path952" class="cls-4" d="M2.53,25.08V6.58h2v37h-2Z" transform="translate(-2.53 -6.51)"/><path id="path954" class="cls-4" d="M8.27,30.24V16.9h1.85v2.19a15.8,15.8,0,0,0,.08,2.19,1.47,1.47,0,0,0,.33-.46,9.79,9.79,0,0,1,3.74-3.44,11.66,11.66,0,0,1,10.13.28,8.35,8.35,0,0,1,4.05,6c.19.9.2,1.22.24,10.44l0,9.52H26.78l0-9.62,0-9.61-.26-.93A5.92,5.92,0,0,0,24,19.69a8.24,8.24,0,0,0-2.53-1.16,6.88,6.88,0,0,0-2.25-.21A8.19,8.19,0,0,0,15,19.2a5.24,5.24,0,0,0-1.8,1.34,11,11,0,0,0-3,6.92c-.05.59-.09,4.46-.1,8.6v7.52H8.27Z" transform="translate(-2.53 -6.51)"/><path id="path956" class="cls-4" d="M38.32,43.47a5,5,0,0,1-2-1.07A6.49,6.49,0,0,1,35.07,40c-.15-.53-.17-1.47-.2-10.88l0-10.29H30.18v-2h4.67V9.55l1-.51,1-.52V16.9h5.74v2H36.8v10q0,10,.1,10.64c.3,1.7,1.47,2.32,4,2.1.62-.05,1.22-.13,1.34-.16s.22,0,.22,1v1l-1,.06A14.37,14.37,0,0,1,38.32,43.47Z" transform="translate(-2.53 -6.51)"/><path id="path958" class="cls-4" d="M53.1,44a9.74,9.74,0,0,1-7.54-5.8,18.82,18.82,0,0,1-.82-2,20.16,20.16,0,0,1,.09-11.57,11.88,11.88,0,0,1,2.86-4.75,10.68,10.68,0,0,1,9-3.47,10.74,10.74,0,0,1,6.84,2.87,12.37,12.37,0,0,1,2.94,5.12,14,14,0,0,1,.85,4.79l0,1.73H45.82l.06,1.1c.23,4.3,2.14,7.86,5,9.26a11.11,11.11,0,0,0,5.89.95c4.62-.46,7.26-3,8.43-8.22l.06-.27h1.85V34a15.75,15.75,0,0,1-.64,2.8,13.53,13.53,0,0,1-1.69,3.28A10.75,10.75,0,0,1,57.88,44,18.24,18.24,0,0,1,53.1,44ZM65.45,28.41a13.3,13.3,0,0,0-1.14-4.84,8.43,8.43,0,0,0-6.15-5.08,13.63,13.63,0,0,0-4.77.05,9.71,9.71,0,0,0-6,4.88,16.22,16.22,0,0,0-1.51,5.19l0,.36H65.5Z" transform="translate(-2.53 -6.51)"/><path id="path960" class="cls-4" d="M70.19,25.27V7h1.94V43.58H70.19Z" transform="translate(-2.53 -6.51)"/><path id="path962" class="cls-4" d="M76,25.27V7h1.85V43.58H76Z" transform="translate(-2.53 -6.51)"/><path id="path964" class="cls-4" d="M81.77,30.24V16.9h2V43.58h-2Z" transform="translate(-2.53 -6.51)"/><path id="path966" class="cls-4" d="M87.51,26.36c0-12,0-17.39.11-17.79.37-2,1.44-2.18,11.67-2,5.25.09,6,.13,6.82.3,4.33.9,6.73,3.18,7.6,7.23a11,11,0,0,1,.22,2.76,9.33,9.33,0,0,1-.57,3.87,9.78,9.78,0,0,1-7.28,6c-1.7.41-2.53.44-9.75.44H89.46V43.58H87.51ZM104.84,25a8.8,8.8,0,0,0,4.94-2.42,6.94,6.94,0,0,0,2-3.47,14.8,14.8,0,0,0,0-5,6.89,6.89,0,0,0-4.49-4.9c-1.82-.66-3.45-.78-11.3-.82-4.8,0-5,0-5.54.17a1.4,1.4,0,0,0-.76.53l-.22.33V25.18h7.28a75.63,75.63,0,0,0,8.1-.15Z" transform="translate(-2.53 -6.51)"/><path id="path968" class="cls-4" d="M124.85,44a11,11,0,0,1-4.55-1.89,14.31,14.31,0,0,1-4.49-6.53,17.39,17.39,0,0,1,.71-12.4c2.18-4.5,5.75-6.79,10.56-6.79a11.27,11.27,0,0,1,7,2.17,13.62,13.62,0,0,1,4.77,8.56,17.17,17.17,0,0,1-1.5,10.79,10.88,10.88,0,0,1-10.41,6.24A13.78,13.78,0,0,1,124.85,44Zm3.69-1.84a9.46,9.46,0,0,0,3.07-.92c2.85-1.44,4.92-4.78,5.46-8.83a23.44,23.44,0,0,0-.19-5.45,13.48,13.48,0,0,0-1.21-3.38,8.92,8.92,0,0,0-6.18-5,8.51,8.51,0,0,0-2.45-.2,7.7,7.7,0,0,0-2.58.26,8.75,8.75,0,0,0-4.4,2.65,14.24,14.24,0,0,0-2.92,6.24,21.22,21.22,0,0,0,0,5.63c.73,3.61,2.81,6.78,5.3,8.06a9.93,9.93,0,0,0,6.1,1Z" transform="translate(-2.53 -6.51)"/><path id="path970" class="cls-4" d="M154,16.9h4.38l0-3.7,0-3.7.9-.48.9-.48V16.9h5.84v2h-5.84v9.81c0,5.75.05,10.11.1,10.53a2.58,2.58,0,0,0,1,2,5,5,0,0,0,2.88.42c.6-.06,1.23-.13,1.41-.17l.31-.06v2l-1.09.06c-2.43.14-3.18.05-4.28-.54A3.5,3.5,0,0,1,159,41.2c-.63-1.34-.62-1-.62-12.2V18.85H156" transform="translate(-2.53 -6.51)"/><path class="cls-4" d="M163.15,16.9h-2.92V8.53l-.9.49-.9.48,0,3.7,0,3.7h-4.69v2h4.69V29c0,11.2,0,10.86.62,12.2A3.51,3.51,0,0,0,160.69,43c1.07.55,1.75.63,4.19.49l1.09-.06v-1a3.69,3.69,0,0,0-.07-1l-.66.1a10.29,10.29,0,0,1-3.26-.05,2.29,2.29,0,0,1-1.45-1.36c-.26-.89-.3-2.46-.3-11.66V18.85h5.84v-2Z" transform="translate(-2.53 -6.51)"/><path class="cls-4" d="M153.1,16.33" transform="translate(-2.53 -6.51)"/><path class="cls-4" d="M151.26,16.51l-1.16.19a11.62,11.62,0,0,0-1.42.43l-.13,0-.36.16-.35.15-.37.19-.1.06A4.06,4.06,0,0,0,147,18a4.54,4.54,0,0,0-.54.41l0,0-.3.26c-.22.2-.44.41-.67.65l-.14.16a7.49,7.49,0,0,0-1,1.2,2.27,2.27,0,0,1-.46.6,15.8,15.8,0,0,1-.08-2.19V16.9h-1.85V43.58h1.85v-3l0-5.28c0-5.16.05-7.23.11-8.25,0-.38.1-.77.17-1.14l.09-.36c0-.19.1-.38.15-.57A11.31,11.31,0,0,1,146,21.49l.07-.1a5.72,5.72,0,0,1,.45-.53c.16-.18.33-.35.5-.51l.19-.18a9.14,9.14,0,0,1,.83-.6,8.81,8.81,0,0,1,4.18-1.27V16.42Z" transform="translate(-2.53 -6.51)"/><path id="path974" class="cls-4" d="M168.8,49.05c0-.74,0-.76.32-.95.66-.41,1.23-2,1.37-3.77l.06-.75h-1.07V38.51h2.45L171.88,42c0,3.85-.09,4.23-.68,5.49a5.05,5.05,0,0,1-1.77,2.07,2.13,2.13,0,0,1-.53.26c-.06,0-.1-.28-.1-.76Z" transform="translate(-2.53 -6.51)"/><path id="path976" class="cls-4" d="M191,25.08V6.58h1.95v37H191Z" transform="translate(-2.53 -6.51)"/><path id="path978" class="cls-4" d="M196.83,30.24V16.9h1.85l0,2.21,0,2.21.43-.67a10,10,0,0,1,3.56-3.24,11.21,11.21,0,0,1,2.92-.9,14.91,14.91,0,0,1,4.43.08,8.37,8.37,0,0,1,6.51,5.62c.59,1.77.6,1.89.6,12.09v9.28h-1.84l0-9.42c0-10.4,0-10.15-.66-11.81a5.65,5.65,0,0,0-3.17-3.22,8.2,8.2,0,0,0-3.7-.86,11.84,11.84,0,0,0-3.1.45,9.35,9.35,0,0,0-2.55,1.39,11,11,0,0,0-3.21,5.95c-.15.64-.17,1.73-.2,9.12l0,8.4h-1.84Z" transform="translate(-2.53 -6.51)"/><path id="path980" class="cls-4" d="M229.58,44a10.45,10.45,0,0,1-5.91-3.07,13.84,13.84,0,0,1-3.48-6.76,22.21,22.21,0,0,1-.15-5.85c.55-4.21,2.38-7.8,5-9.73a12.27,12.27,0,0,1,7.37-2.21,9.39,9.39,0,0,1,3.45.48,9,9,0,0,1,6.13,6,21.21,21.21,0,0,1,.64,2.73,4.33,4.33,0,0,1-1,.05h-.94l-.23-.95c-.83-3.59-2.77-5.55-6.16-6.26a11.71,11.71,0,0,0-6.48.69,9.49,9.49,0,0,0-3.67,3.15,16.87,16.87,0,0,0-2.05,5.15,15.92,15.92,0,0,0,.38,7.91,12.28,12.28,0,0,0,3.2,4.93,9.14,9.14,0,0,0,4,1.85,14,14,0,0,0,2.09.12,8.47,8.47,0,0,0,2.36-.21c3.78-.94,6-3.36,6.6-7.35l.12-.75h1c1,0,1,0,.92.22s-.12.59-.21,1c-1.12,5.78-5,9-10.9,8.95a18,18,0,0,1-2-.14Z" transform="translate(-2.53 -6.51)"/><path id="path982" class="cls-4" d="M246.87,41.09V38.61h2.43v5h-2.43Z" transform="translate(-2.53 -6.51)"/></svg>