<?xml version="1.0" encoding="utf-8"?>
<!-- Generator: Adobe Illustrator 22.0.1, SVG Export Plug-In . SVG Version: 6.00 Build 0)  -->
<svg version="1.1"
	 id="svg140" inkscape:version="0.92.2 5c3e80d, 2017-08-06" sodipodi:docname="intelliport_inc.svg" xmlns:cc="http://creativecommons.org/ns#" xmlns:dc="http://purl.org/dc/elements/1.1/" xmlns:inkscape="http://www.inkscape.org/namespaces/inkscape" xmlns:rdf="http://www.w3.org/1999/02/22-rdf-syntax-ns#" xmlns:sodipodi="http://sodipodi.sourceforge.net/DTD/sodipodi-0.dtd" xmlns:svg="http://www.w3.org/2000/svg"
	 xmlns="http://www.w3.org/2000/svg" xmlns:xlink="http://www.w3.org/1999/xlink" x="0px" y="0px" viewBox="0 0 250 50"
	 style="enable-background:new 0 0 250 50;" xml:space="preserve">
<style type="text/css">
	.st0{fill:#623FD6;fill-opacity:0;}
	.st1{fill:#623FD6;}
	.st2{fill:#700000;fill-opacity:0;}
	.st3{fill:#7F7F7F;}
</style>
<sodipodi:namedview  bordercolor="#666666" borderopacity="1" fit-margin-bottom="0" fit-margin-left="0" fit-margin-right="0" fit-margin-top="0" gridtolerance="10" guidetolerance="10" id="namedview142" inkscape:current-layer="svg140" inkscape:cx="63.322609" inkscape:cy="32.880433" inkscape:measure-end="2.92035,0.194683" inkscape:measure-start="20.2478,-9.73451" inkscape:pagecheckerboard="true" inkscape:pageopacity="0" inkscape:pageshadow="2" inkscape:window-height="650" inkscape:window-maximized="0" inkscape:window-width="1291" inkscape:window-x="28" inkscape:window-y="63" inkscape:zoom="5.1363637" objecttolerance="10" pagecolor="#ffffff" scale-x="1" showgrid="false" width="332.33333px">
	</sodipodi:namedview>
<path id="path3864" inkscape:connector-curvature="0" class="st0" d="M81.8,9.9v-3h1h1v3v3h-1h-1V9.9z"/>
<path id="path4671" inkscape:connector-curvature="0" class="st0" d="M81.8,9.9v-3h1h1v3v3h-1h-1V9.9z"/>
<path id="path4673" inkscape:connector-curvature="0" class="st0" d="M81.8,9.9v-3h1h1v3v3h-1h-1V9.9z"/>
<path id="path4675" inkscape:connector-curvature="0" class="st0" d="M81.8,9.9v-3h1h1v3v3h-1h-1V9.9z"/>
<path id="path4677" inkscape:connector-curvature="0" inkscape:export-xdpi="7267.8628" inkscape:export-ydpi="7267.8628" class="st1" d="
	M81.8,9.9v-3h1h1v3v3h-1h-1V9.9z"/>
<path id="path916" inkscape:connector-curvature="0" class="st2" d="M2.6,25.2c0-18.2,0-18.5,0.8-18.5s0.8,0.3,0.8,18.5
	s0,18.5-0.8,18.5S2.6,43.4,2.6,25.2z"/>
<path id="path952" inkscape:connector-curvature="0" class="st3" d="M2.5,25.1V6.6h1h1v18.5v18.5h-1h-1V25.1z"/>
<path id="path954" inkscape:connector-curvature="0" class="st3" d="M8.3,30.2V16.9h0.9h0.9v2.2c0,1.2,0,2.2,0.1,2.2
	s0.2-0.2,0.3-0.5c0.7-1.3,2.3-2.7,3.7-3.4c3-1.5,7.4-1.3,10.1,0.3c2.2,1.3,3.4,3.1,4,6c0.2,0.9,0.2,1.2,0.2,10.4l0,9.5h-1h-1l0-9.6
	l0-9.6l-0.3-0.9c-0.5-1.8-1.2-2.9-2.5-3.7c-0.8-0.5-1.5-0.9-2.5-1.2c-0.6-0.2-1-0.2-2.3-0.2c-1.8,0-2.8,0.2-4.2,0.9
	c-0.8,0.4-1,0.6-1.8,1.3c-1.7,1.7-2.7,4.1-3,6.9c-0.1,0.6-0.1,4.5-0.1,8.6l0,7.5H9.2H8.3V30.2z"/>
<path id="path956" inkscape:connector-curvature="0" class="st3" d="M38.3,43.5c-0.6-0.2-1.6-0.7-2-1.1c-0.4-0.4-1-1.5-1.2-2.4
	c-0.2-0.5-0.2-1.5-0.2-10.9l0-10.3h-2.3h-2.3v-1v-1h2.3h2.3l0-3.7l0-3.7l1-0.5l1-0.5v4.2v4.2h2.9h2.9v1v1h-2.9h-2.9v10
	c0,6.7,0,10.2,0.1,10.6c0.3,1.7,1.5,2.3,4,2.1c0.6-0.1,1.2-0.1,1.3-0.2c0.2-0.1,0.2-0.1,0.2,1v1l-1,0.1C40,43.6,38.8,43.6,38.3,43.5
	z"/>
<path id="path958" inkscape:connector-curvature="0" class="st3" d="M53.1,44c-3.5-0.6-5.9-2.4-7.5-5.8c-0.3-0.6-0.7-1.5-0.8-2
	c-1.1-3.6-1.1-8.1,0.1-11.6c0.6-1.9,1.5-3.3,2.9-4.7c2.5-2.6,5.6-3.8,9-3.5c2.9,0.3,5,1.2,6.8,2.9c1.2,1.1,2.2,2.9,2.9,5.1
	c0.6,1.8,0.8,2.8,0.8,4.8l0.1,1.7H56.6H45.8l0.1,1.1c0.2,4.3,2.1,7.9,5,9.3c1.7,0.8,3.8,1.2,5.9,1c4.6-0.5,7.3-3,8.4-8.2l0.1-0.3
	h0.9h0.9l0,0.3c0,0.4-0.4,1.9-0.6,2.8c-0.3,1-1.1,2.5-1.7,3.3c-1.5,2-4,3.4-6.9,3.9C56.7,44.2,54.4,44.2,53.1,44z M65.5,28.4
	c-0.2-2-0.5-3.5-1.1-4.8c-1.3-2.8-3.2-4.4-6.1-5.1c-1.2-0.3-3.7-0.2-4.8,0c-2.5,0.7-4.7,2.4-6,4.9c-0.7,1.3-1.2,3.1-1.5,5.2l0,0.4
	h9.8h9.8L65.5,28.4z"/>
<path id="path960" inkscape:connector-curvature="0" class="st3" d="M70.2,25.3V7h1h1v18.3v18.3h-1h-1V25.3z"/>
<path id="path962" inkscape:connector-curvature="0" class="st3" d="M76,25.3V7H77h0.9v18.3v18.3H77H76V25.3z"/>
<path id="path964" inkscape:connector-curvature="0" class="st3" d="M81.8,30.2V16.9h1h1v13.3v13.3h-1h-1V30.2z"/>
<path id="path966" inkscape:connector-curvature="0" class="st3" d="M87.5,26.4c0-12,0-17.4,0.1-17.8c0.4-2,1.4-2.2,11.7-2
	c5.2,0.1,6,0.1,6.8,0.3c4.3,0.9,6.7,3.2,7.6,7.2c0.2,0.8,0.2,1.3,0.2,2.8c0,1.9-0.1,2.5-0.6,3.9c-1,2.9-3.7,5.1-7.3,6
	c-1.7,0.4-2.5,0.4-9.8,0.4h-6.9v8.2v8.2h-1h-1V26.4z M104.8,25c2.1-0.4,3.5-1.1,4.9-2.4c1-1,1.6-2,2-3.5c0.3-1,0.2-3.9,0-5
	c-0.7-2.4-2.2-4-4.5-4.9c-1.8-0.7-3.4-0.8-11.3-0.8c-4.8,0-5,0-5.5,0.2c-0.4,0.1-0.6,0.3-0.8,0.5l-0.2,0.3v7.9v7.9l7.3,0
	C102.8,25.2,104.2,25.2,104.8,25L104.8,25z"/>
<path id="path968" inkscape:connector-curvature="0" class="st3" d="M124.8,44c-1.7-0.3-3.3-1-4.5-1.9c-1.9-1.4-3.7-4-4.5-6.5
	c-1.3-4-1-8.8,0.7-12.4c2.2-4.5,5.7-6.8,10.6-6.8c2.7,0,5,0.7,6.9,2.2c2.4,1.8,4.2,5,4.8,8.6c0.6,4,0.1,7.7-1.5,10.8
	c-2.2,4.2-5.7,6.3-10.4,6.2C126.2,44.1,125.3,44.1,124.8,44z M128.5,42.2c1.2-0.2,2.1-0.5,3.1-0.9c2.9-1.4,4.9-4.8,5.5-8.8
	c0.2-1.3,0.1-4.3-0.2-5.5c-0.3-1.3-0.6-2.3-1.2-3.4c-1.4-2.8-3.3-4.3-6.2-5c-0.7-0.2-1.1-0.2-2.5-0.2c-1.4,0-1.7,0-2.6,0.3
	c-1.8,0.5-3.4,1.4-4.4,2.7c-1.4,1.7-2.5,3.9-2.9,6.2c-0.2,1.2-0.2,4.4,0,5.6c0.7,3.6,2.8,6.8,5.3,8.1
	C124.3,42.1,126.4,42.5,128.5,42.2L128.5,42.2z"/>
<path id="path970_3_" inkscape:connector-curvature="0" class="st3" d="M154,16.9h2.2h2.2l0-3.7l0-3.7l0.9-0.5l0.9-0.5v4.2v4.2h2.9
	h2.9v1v1h-2.9h-2.9l0,9.8c0,5.7,0,10.1,0.1,10.5c0.1,1,0.5,1.7,1,2c0.7,0.4,1.6,0.5,2.9,0.4c0.6-0.1,1.2-0.1,1.4-0.2l0.3-0.1v1v1
	l-1.1,0.1c-2.4,0.1-3.2,0-4.3-0.5c-0.7-0.4-1.2-0.9-1.6-1.8c-0.6-1.3-0.6-1-0.6-12.2l0-10.1H156"/>
<g>
	<path class="st3" d="M163.2,16.9h-2.9v-4.2V8.5L159.3,9l-0.9,0.5l0,3.7l0,3.7h-2.2h-2.5v1.9h2.3h2.4l0,10.1c0,11.2,0,10.9,0.6,12.2
		c0.4,0.9,0.9,1.4,1.7,1.8c1.1,0.6,1.7,0.6,4.2,0.5l1.1-0.1v-1c0-0.6,0-1-0.1-1c0,0-0.3,0-0.7,0.1c-0.9,0.2-2.6,0.1-3.3-0.1
		c-0.7-0.2-1.3-0.8-1.5-1.4c-0.3-0.9-0.3-2.5-0.3-11.7l0-9.6h2.9h2.9v-1v-1H163.2z"/>
	<path class="st3" d="M153.1,16.3"/>
	<path class="st3" d="M152,18.3c-1.7,0.1-2.7,0.6-3.9,1.3c-0.3,0.2-0.6,0.4-0.8,0.6c-0.1,0.1-0.1,0.1-0.2,0.2
		c-0.2,0.2-0.3,0.3-0.5,0.5c-0.2,0.2-0.3,0.3-0.4,0.5c0,0,0,0.1-0.1,0.1c-0.7,1-1.3,2.2-1.7,3.5c-0.1,0.2-0.1,0.4-0.2,0.6
		c0,0.1-0.1,0.2-0.1,0.4c-0.1,0.4-0.1,0.8-0.2,1.1c-0.1,1-0.1,3.1-0.1,8.2l0,5.3l0,3h0h-0.9h0h-0.9h0l0-13.3V16.9h0.9h0.9v2.2
		c0,1.2,0,2.2,0.1,2.2s0.3-0.3,0.5-0.6c0.2-0.3,0.6-0.8,1-1.2c0-0.1,0.1-0.1,0.1-0.2c0.2-0.2,0.4-0.4,0.7-0.6
		c0.1-0.1,0.2-0.2,0.3-0.3c0,0,0,0,0,0c0.2-0.2,0.4-0.3,0.5-0.4c0.1-0.1,0.3-0.2,0.4-0.2c0,0,0.1,0,0.1-0.1c0.1-0.1,0.2-0.1,0.4-0.2
		c0.1-0.1,0.2-0.1,0.3-0.2c0.1-0.1,0.2-0.1,0.4-0.2c0,0,0.1,0,0.1,0c0.5-0.2,0.9-0.3,1.4-0.4l0.7-0.2l1.2-0.1V18.3z"/>
</g>
<path id="path974" inkscape:connector-curvature="0" class="st3" d="M168.8,49.1c0-0.7,0-0.8,0.3-1c0.7-0.4,1.2-2,1.4-3.8l0.1-0.8
	H170h-0.5V41v-2.5h1.2h1.2l0,3.5c0,3.9-0.1,4.2-0.7,5.5c-0.4,0.8-1.1,1.7-1.8,2.1c-0.2,0.1-0.5,0.3-0.5,0.3
	C168.8,49.8,168.8,49.5,168.8,49.1L168.8,49.1z"/>
<path id="path976" inkscape:connector-curvature="0" class="st3" d="M191,25.1V6.6h1h1v18.5v18.5h-1h-1V25.1z"/>
<path id="path978" inkscape:connector-curvature="0" class="st3" d="M196.8,30.2V16.9h0.9h0.9l0,2.2l0,2.2l0.4-0.7
	c0.8-1.3,2.3-2.6,3.6-3.2c0.8-0.4,2-0.8,2.9-0.9c1.2-0.2,3.3-0.2,4.4,0.1c3.2,0.7,5.5,2.7,6.5,5.6c0.6,1.8,0.6,1.9,0.6,12.1l0,9.3
	h-0.9h-0.9l0-9.4c0-10.4,0-10.1-0.7-11.8c-0.6-1.5-1.5-2.4-3.2-3.2c-1.2-0.6-2.4-0.9-3.7-0.9c-0.9,0-2.3,0.2-3.1,0.5
	c-0.8,0.2-1.9,0.9-2.5,1.4c-1.4,1.1-2.7,3.4-3.2,5.9c-0.1,0.6-0.2,1.7-0.2,9.1l0,8.4h-0.9h-0.9L196.8,30.2z"/>
<path id="path980" inkscape:connector-curvature="0" class="st3" d="M229.6,44c-2.3-0.4-4.4-1.5-5.9-3.1c-1.7-1.9-2.9-4.1-3.5-6.8
	c-0.3-1.4-0.4-4.2-0.2-5.9c0.6-4.2,2.4-7.8,5-9.7c1.9-1.4,4.5-2.2,7.4-2.2c1.5,0,2.2,0.1,3.5,0.5c3.1,1,5.1,3,6.1,6
	c0.2,0.6,0.6,2.5,0.6,2.7c0,0-0.4,0.1-0.9,0.1l-0.9,0l-0.2-0.9c-0.8-3.6-2.8-5.6-6.2-6.3c-2-0.4-4.8-0.1-6.5,0.7
	c-1.4,0.7-2.8,1.9-3.7,3.2c-0.8,1.2-1.7,3.4-2,5.1c-0.5,2.6-0.4,5.6,0.4,7.9c0.6,1.8,2,3.9,3.2,4.9c1,0.9,2.4,1.5,4,1.8
	c0.3,0.1,1.2,0.1,2.1,0.1c1.2,0,1.7,0,2.4-0.2c3.8-0.9,6-3.4,6.6-7.3l0.1-0.8h1c0.9,0,1,0,0.9,0.2c0,0.1-0.1,0.6-0.2,1
	c-1.1,5.8-5,9-10.9,8.9C230.9,44.1,230,44.1,229.6,44L229.6,44z"/>
<path id="path982" inkscape:connector-curvature="0" class="st3" d="M246.9,41.1v-2.5h1.2h1.2v2.5v2.5h-1.2h-1.2V41.1z"/>
</svg>
